<?xml version="1.0" encoding="UTF-8"?>
<svg id="Layer_2" data-name="Layer 2" xmlns="http://www.w3.org/2000/svg" viewBox="0 0 350.62 241.85">
  <defs>
    <style>
      .cls-1 {
        fill: #001239;
        stroke-width: 0px;
      }
    </style>
  </defs>
  <g id="Layer_1-2" data-name="Layer 1">
    <path class="cls-1" d="M203.62,232.36v.93h-.01c.01-.31.01-.62.01-.93ZM83.65,163.8h39.21l15.24-85.78h-39.21l-15.24,85.78ZM69.38,78.02c2.8-8.82,2.61-28.99,11.59-34.77,13-8.23,24.21,3.58,20.92,17.59h39.31C152.84,4.61,76.32-19.58,42.64,18.32c-14.29,17.92-13.54,37.75-18.41,59.69h-9.94l-5.91,33.33h9.96L0,214.82h45.21s18.53-103.48,18.53-103.48h16.13l5.63-33.33h-16.13ZM224.35,43.25c12.99-8.24,24.19,3.58,20.92,17.59h.07v.02h39.21v-.02h.02c11.67-56.2-64.88-80.43-98.55-42.52-14.31,17.96-13.54,37.82-18.43,59.8h-9.9l-5.91,33.33h9.89c-4.05,22.01-9.06,54.23-13.8,76.12-4.85,21.25-32.81,16.58-27.75-6.56h-39.31c-11.64,56.22,64.87,80.43,98.55,42.52,14.3-17.93,13.54-37.74,18.41-59.69,2.04-11.93,7.3-40.8,9.27-52.39h16.24l5.62-33.33h-16.16c2.77-8.76,2.64-29.15,11.61-34.87ZM338.15,98.98c-10.22-12.36-25.15-19.87-41.48-21.04l-6.95,39.45c.8-.09,1.62-.16,2.44-.16,6.26,0,11.94,2.52,15.57,6.91,2,2.42,4.18,6.41,3.18,11.65l-4.97,26.05c-1.48,7.71-9.53,13.53-18.75,13.53-6.26,0-11.94-2.52-15.57-6.91-2-2.42-5.18-6.41-4.17-11.65l2.7-13.99,11.39-64.13.12-.68h-39.21l-11.39,64.05-1.4,7.35c-2.98,15.63,1.23,31.74,11.54,44.21,11.16,13.49,27.92,21.23,45.99,21.23,28.29,0,52.48-19.18,57.53-45.61l4.97-26.05c2.98-15.63-1.23-31.74-11.54-44.21Z"/>
  </g>
</svg>